<svg width="116" height="49" viewBox="0 0 116 49" fill="none" xmlns="http://www.w3.org/2000/svg">
<path d="M0 42.0627H16.6223L20.9441 33.2529C15.7912 24.1107 6.81513 28.7715 5.1529 32.2556L0 42.0627Z" fill="white"/>
<path d="M42.3867 42.0543H25.9307C18.8828 29.1555 16.5668 22.3846 16.2898 20.6116C14.561 12.6329 18.9493 3.43527 21.4427 0L42.3867 42.0543Z" fill="white"/>
<path d="M49.8012 41.7194C48.9479 41.7194 48.1833 41.5809 47.5073 41.3038C46.8314 41.0268 46.2884 40.6168 45.8784 40.0738C45.4794 39.5308 45.2689 38.877 45.2467 38.1124H48.272C48.3163 38.5445 48.4659 38.877 48.7208 39.1097C48.9756 39.3313 49.3081 39.4421 49.7181 39.4421C50.1392 39.4421 50.4717 39.3479 50.7154 39.1596C50.9592 38.9601 51.0811 38.6886 51.0811 38.3451C51.0811 38.0569 50.9814 37.8187 50.7819 37.6303C50.5935 37.4419 50.3553 37.2868 50.0672 37.1649C49.7901 37.043 49.3912 36.9045 48.8704 36.7493C48.1168 36.5166 47.5018 36.2839 47.0253 36.0512C46.5488 35.8185 46.1388 35.475 45.7953 35.0206C45.4517 34.5663 45.28 33.9734 45.28 33.242C45.28 32.156 45.6734 31.3083 46.4601 30.6988C47.2469 30.0783 48.272 29.768 49.5353 29.768C50.8207 29.768 51.8568 30.0783 52.6436 30.6988C53.4304 31.3083 53.8515 32.1616 53.9069 33.2587H50.8318C50.8096 32.8819 50.6711 32.5882 50.4162 32.3777C50.1614 32.156 49.8345 32.0452 49.4355 32.0452C49.092 32.0452 48.815 32.1394 48.6044 32.3278C48.3939 32.5051 48.2886 32.7655 48.2886 33.1091C48.2886 33.4858 48.4659 33.7795 48.8205 33.99C49.1751 34.2006 49.7292 34.4278 50.4827 34.6715C51.2363 34.9264 51.8458 35.1702 52.3112 35.4029C52.7877 35.6356 53.1977 35.9736 53.5412 36.4169C53.8848 36.8601 54.0565 37.4308 54.0565 38.129C54.0565 38.7939 53.8848 39.3978 53.5412 39.9408C53.2088 40.4838 52.7212 40.916 52.0785 41.2373C51.4357 41.5587 50.6767 41.7194 49.8012 41.7194ZM65.0644 39.5419H60.7093L60.0112 41.603H57.0358L61.2579 29.9342H64.5491L68.7711 41.603H65.7625L65.0644 39.5419ZM64.333 37.3477L62.8868 33.0758L61.4573 37.3477H64.333ZM85.2655 29.9342V41.603H82.4231V34.6051L79.8134 41.603H77.5195L74.8932 34.5884V41.603H72.0508V29.9342H75.4085L78.6831 38.0126L81.9244 29.9342H85.2655ZM96.5681 39.5419H92.2131L91.5149 41.603H88.5395L92.7616 29.9342H96.0528L100.275 41.603H97.2662L96.5681 39.5419ZM95.8367 37.3477L94.3906 33.0758L92.9611 37.3477H95.8367ZM113.993 41.603H111.151L106.397 34.4056V41.603H103.554V29.9342H106.397L111.151 37.1649V29.9342H113.993V41.603Z" fill="white"/>
</svg>
